<svg width="631" height="579" viewBox="0 0 631 579" fill="none" xmlns="http://www.w3.org/2000/svg">
<g filter="url(#filter0_d_53:717)">
<rect x="40.5" y="30" width="550" height="499" rx="46" fill="white"/>
</g>
<line x1="40.5" y1="136.5" x2="590.5" y2="136.5" stroke="#FEC200"/>
<path d="M81.876 61.224H72.156V78H81.876V75.264H75.516V70.824H81.156V68.16H75.516V63.96H81.876V61.224ZM94.9614 78H98.8254L93.4734 69.672L98.7294 61.248H94.9374L91.6734 66.864L88.0494 61.248H84.1854L89.5374 69.552L84.2574 78H88.0494L91.3374 72.36L94.9614 78ZM100.567 69.6C100.567 74.616 104.239 78.144 109.063 78.144C112.783 78.144 115.807 76.176 116.935 72.72H113.071C112.279 74.352 110.839 75.144 109.039 75.144C106.111 75.144 104.023 72.984 104.023 69.6C104.023 66.192 106.111 64.056 109.039 64.056C110.839 64.056 112.279 64.848 113.071 66.456H116.935C115.807 63.024 112.783 61.032 109.063 61.032C104.239 61.032 100.567 64.584 100.567 69.6ZM130.34 78H133.7V61.248H130.34V68.136H123.164V61.248H119.804V78H123.164V70.872H130.34V78ZM148.384 78H151.936L145.912 61.224H142L135.976 78H139.504L140.608 74.808H147.28L148.384 78ZM146.368 72.12H141.52L143.944 65.112L146.368 72.12ZM165.155 61.224V72.744L157.547 61.224H154.187V78H157.547V66.504L165.155 78H168.515V61.224H165.155ZM179.564 61.032C174.716 61.032 171.02 64.584 171.02 69.6C171.02 74.616 174.716 78.144 179.588 78.144C184.052 78.144 187.1 75.024 187.772 71.616V68.688H178.7V71.256H184.46C183.956 73.632 182.3 75.12 179.708 75.12C176.588 75.12 174.476 73.008 174.476 69.6C174.476 66.264 176.564 64.128 179.564 64.128C181.34 64.128 182.732 64.872 183.5 66.288H187.364C186.284 62.928 183.308 61.032 179.564 61.032ZM199.978 61.224H190.258V78H199.978V75.264H193.618V70.824H199.258V68.16H193.618V63.96H199.978V61.224Z" fill="black"/>
<path d="M70.976 99.278H73.65V108H74.924V99.278H77.584V98.242H70.976V99.278ZM80.4262 103.828C80.4262 102.05 81.3502 101.504 82.5682 101.504H82.9042V100.188C81.6862 100.188 80.8602 100.72 80.4262 101.574V100.328H79.1522V108H80.4262V103.828ZM83.8989 104.136C83.8989 106.516 85.4809 108.126 87.5249 108.126C88.9389 108.126 89.9329 107.398 90.3949 106.572V108H91.6829V100.328H90.3949V101.728C89.9469 100.93 88.9669 100.202 87.5389 100.202C85.4809 100.202 83.8989 101.742 83.8989 104.136ZM90.3949 104.15C90.3949 105.956 89.1909 107.006 87.7909 107.006C86.3909 107.006 85.2009 105.942 85.2009 104.136C85.2009 102.33 86.3909 101.308 87.7909 101.308C89.1909 101.308 90.3949 102.372 90.3949 104.15ZM93.3598 104.136C93.3598 106.516 94.9418 108.126 96.9998 108.126C98.3998 108.126 99.3938 107.412 99.8558 106.558V108H101.144V97.64H99.8558V101.7C99.3238 100.818 98.2178 100.202 97.0138 100.202C94.9418 100.202 93.3598 101.742 93.3598 104.136ZM99.8558 104.15C99.8558 105.956 98.6518 107.006 97.2518 107.006C95.8518 107.006 94.6618 105.942 94.6618 104.136C94.6618 102.33 95.8518 101.308 97.2518 101.308C98.6518 101.308 99.8558 102.372 99.8558 104.15ZM106.559 101.28C107.875 101.28 108.995 102.106 108.981 103.604H104.137C104.277 102.106 105.313 101.28 106.559 101.28ZM110.143 105.634H108.771C108.491 106.46 107.763 107.048 106.615 107.048C105.313 107.048 104.221 106.194 104.123 104.64H110.255C110.283 104.374 110.297 104.15 110.297 103.87C110.297 101.77 108.841 100.202 106.615 100.202C104.375 100.202 102.821 101.728 102.821 104.15C102.821 106.586 104.431 108.126 106.615 108.126C108.519 108.126 109.751 107.034 110.143 105.634ZM115.991 105.9C115.991 107.44 116.761 108 118.119 108H119.267V106.922H118.329C117.545 106.922 117.265 106.656 117.265 105.9V101.378H119.267V100.328H117.265V98.396H115.991V100.328H114.997V101.378H115.991V105.9ZM128.09 104.15C128.09 101.728 126.396 100.202 124.212 100.202C122.042 100.202 120.334 101.728 120.334 104.15C120.334 106.586 121.986 108.126 124.156 108.126C126.34 108.126 128.09 106.586 128.09 104.15ZM121.636 104.15C121.636 102.218 122.854 101.308 124.198 101.308C125.514 101.308 126.788 102.218 126.788 104.15C126.788 106.096 125.486 107.006 124.156 107.006C122.826 107.006 121.636 106.096 121.636 104.15ZM129.766 108H131.04V104.612L134.05 108H135.786L132.16 104.15L135.772 100.328H133.994L131.04 103.73V97.64H129.766V108ZM140.233 101.28C141.549 101.28 142.669 102.106 142.655 103.604H137.811C137.951 102.106 138.987 101.28 140.233 101.28ZM143.817 105.634H142.445C142.165 106.46 141.437 107.048 140.289 107.048C138.987 107.048 137.895 106.194 137.797 104.64H143.929C143.957 104.374 143.971 104.15 143.971 103.87C143.971 101.77 142.515 100.202 140.289 100.202C138.049 100.202 136.495 101.728 136.495 104.15C136.495 106.586 138.105 108.126 140.289 108.126C142.193 108.126 143.425 107.034 143.817 105.634ZM151.266 108H152.526V103.478C152.526 101.28 151.168 100.188 149.39 100.188C148.354 100.188 147.43 100.622 146.926 101.42V100.328H145.652V108H146.926V103.758C146.926 102.106 147.822 101.294 149.124 101.294C150.412 101.294 151.266 102.092 151.266 103.66V108ZM160.123 105.914C160.067 103.17 155.615 104.164 155.615 102.344C155.615 101.728 156.175 101.28 157.113 101.28C158.135 101.28 158.723 101.84 158.779 102.61H160.053C159.969 101.112 158.849 100.202 157.155 100.202C155.447 100.202 154.341 101.168 154.341 102.344C154.341 105.2 158.877 104.206 158.877 105.914C158.877 106.544 158.317 107.048 157.309 107.048C156.231 107.048 155.573 106.488 155.503 105.746H154.187C154.271 107.146 155.531 108.126 157.323 108.126C159.017 108.126 160.123 107.174 160.123 105.914ZM165.654 108H166.928V100.328H165.654V108ZM166.312 99.082C166.774 99.082 167.152 98.704 167.152 98.214C167.152 97.724 166.774 97.346 166.312 97.346C165.822 97.346 165.444 97.724 165.444 98.214C165.444 98.704 165.822 99.082 166.312 99.082ZM174.713 108H175.973V103.478C175.973 101.28 174.615 100.188 172.837 100.188C171.801 100.188 170.877 100.622 170.373 101.42V100.328H169.099V108H170.373V103.758C170.373 102.106 171.269 101.294 172.571 101.294C173.859 101.294 174.713 102.092 174.713 103.66V108ZM181.311 104.136C181.311 106.516 182.893 108.126 184.937 108.126C186.351 108.126 187.345 107.398 187.807 106.572V108H189.095V100.328H187.807V101.728C187.359 100.93 186.379 100.202 184.951 100.202C182.893 100.202 181.311 101.742 181.311 104.136ZM187.807 104.15C187.807 105.956 186.603 107.006 185.203 107.006C183.803 107.006 182.613 105.942 182.613 104.136C182.613 102.33 183.803 101.308 185.203 101.308C186.603 101.308 187.807 102.372 187.807 104.15ZM196.862 108H198.122V103.478C198.122 101.28 196.764 100.188 194.986 100.188C193.95 100.188 193.026 100.622 192.522 101.42V100.328H191.248V108H192.522V103.758C192.522 102.106 193.418 101.294 194.72 101.294C196.008 101.294 196.862 102.092 196.862 103.66V108ZM203.935 108H205.209V100.328H203.935V108ZM204.593 99.082C205.055 99.082 205.433 98.704 205.433 98.214C205.433 97.724 205.055 97.346 204.593 97.346C204.103 97.346 203.725 97.724 203.725 98.214C203.725 98.704 204.103 99.082 204.593 99.082ZM212.995 108H214.255V103.478C214.255 101.28 212.897 100.188 211.119 100.188C210.083 100.188 209.159 100.622 208.655 101.42V100.328H207.381V108H208.655V103.758C208.655 102.106 209.551 101.294 210.853 101.294C212.141 101.294 212.995 102.092 212.995 103.66V108ZM221.852 105.914C221.796 103.17 217.344 104.164 217.344 102.344C217.344 101.728 217.904 101.28 218.842 101.28C219.864 101.28 220.452 101.84 220.508 102.61H221.782C221.698 101.112 220.578 100.202 218.884 100.202C217.176 100.202 216.07 101.168 216.07 102.344C216.07 105.2 220.606 104.206 220.606 105.914C220.606 106.544 220.046 107.048 219.038 107.048C217.96 107.048 217.302 106.488 217.232 105.746H215.916C216 107.146 217.26 108.126 219.052 108.126C220.746 108.126 221.852 107.174 221.852 105.914ZM223.93 105.9C223.93 107.44 224.7 108 226.058 108H227.206V106.922H226.268C225.484 106.922 225.204 106.656 225.204 105.9V101.378H227.206V100.328H225.204V98.396H223.93V100.328H222.936V101.378H223.93V105.9ZM228.274 104.136C228.274 106.516 229.856 108.126 231.9 108.126C233.314 108.126 234.308 107.398 234.77 106.572V108H236.058V100.328H234.77V101.728C234.322 100.93 233.342 100.202 231.914 100.202C229.856 100.202 228.274 101.742 228.274 104.136ZM234.77 104.15C234.77 105.956 233.566 107.006 232.166 107.006C230.766 107.006 229.576 105.942 229.576 104.136C229.576 102.33 230.766 101.308 232.166 101.308C233.566 101.308 234.77 102.372 234.77 104.15ZM243.825 108H245.085V103.478C245.085 101.28 243.727 100.188 241.949 100.188C240.913 100.188 239.989 100.622 239.485 101.42V100.328H238.211V108H239.485V103.758C239.485 102.106 240.381 101.294 241.683 101.294C242.971 101.294 243.825 102.092 243.825 103.66V108ZM247.446 105.9C247.446 107.44 248.216 108 249.574 108H250.722V106.922H249.784C249 106.922 248.72 106.656 248.72 105.9V101.378H250.722V100.328H248.72V98.396H247.446V100.328H246.452V101.378H247.446V105.9Z" fill="black"/>
<path d="M546.75 71.75C540.538 71.75 535.5 76.7875 535.5 83H533.259C532.702 83 532.423 83.6732 532.817 84.067L536.183 87.4325C536.422 87.6719 536.808 87.6773 537.054 87.4445L540.61 84.0789C541.021 83.6905 540.746 83 540.18 83H538C538 78.1625 541.913 74.25 546.75 74.25C551.588 74.25 555.5 78.1625 555.5 83C555.5 87.8375 551.588 91.75 546.75 91.75C544.789 91.75 542.977 91.0977 541.522 90.0012C540.968 89.5837 540.176 89.5737 539.686 90.0642C539.197 90.5535 539.193 91.3529 539.732 91.7855C541.656 93.3269 544.089 94.25 546.75 94.25C552.963 94.25 558 89.2125 558 83C558 76.7875 552.963 71.75 546.75 71.75ZM545.5 78V84.25L550.85 87.425L551.75 85.9125L547.375 83.3125V78H545.5Z" fill="black"/>
<path d="M491.787 84.225C491.837 83.825 491.875 83.425 491.875 83C491.875 82.575 491.837 82.175 491.787 81.775L494.425 79.7125C494.662 79.525 494.725 79.1875 494.575 78.9125L492.075 74.5875C491.925 74.3125 491.587 74.2125 491.312 74.3125L488.2 75.5625C487.55 75.0625 486.85 74.65 486.087 74.3375L485.612 71.025C485.575 70.725 485.312 70.5 485 70.5H480C479.687 70.5 479.425 70.725 479.387 71.025L478.912 74.3375C478.15 74.65 477.45 75.075 476.8 75.5625L473.687 74.3125C473.4 74.2 473.075 74.3125 472.925 74.5875L470.425 78.9125C470.262 79.1875 470.337 79.525 470.575 79.7125L473.212 81.775C473.162 82.175 473.125 82.5875 473.125 83C473.125 83.4125 473.162 83.825 473.212 84.225L470.575 86.2875C470.337 86.475 470.275 86.8125 470.425 87.0875L472.925 91.4125C473.075 91.6875 473.412 91.7875 473.687 91.6875L476.8 90.4375C477.45 90.9375 478.15 91.35 478.912 91.6625L479.387 94.975C479.425 95.275 479.687 95.5 480 95.5H485C485.312 95.5 485.575 95.275 485.612 94.975L486.087 91.6625C486.85 91.35 487.55 90.925 488.2 90.4375L491.312 91.6875C491.6 91.8 491.925 91.6875 492.075 91.4125L494.575 87.0875C494.725 86.8125 494.662 86.475 494.425 86.2875L491.787 84.225ZM482.5 87.375C480.087 87.375 478.125 85.4125 478.125 83C478.125 80.5875 480.087 78.625 482.5 78.625C484.912 78.625 486.875 80.5875 486.875 83C486.875 85.4125 484.912 87.375 482.5 87.375Z" fill="black"/>
<path d="M314.5 282V293.17L309.62 288.29C309.23 287.9 308.59 287.9 308.2 288.29C307.81 288.68 307.81 289.31 308.2 289.7L314.79 296.29C315.18 296.68 315.81 296.68 316.2 296.29L322.79 289.7C323.18 289.31 323.18 288.68 322.79 288.29C322.4 287.9 321.77 287.9 321.38 288.29L316.5 293.17V282C316.5 281.45 316.05 281 315.5 281C314.95 281 314.5 281.45 314.5 282Z" fill="black"/>
<rect x="70.5" y="321" width="490" height="100" rx="10" fill="#FFF5D6"/>
<path d="M91.044 346.032H94.1V356H95.556V346.032H98.596V344.848H91.044V346.032ZM108.708 351.6C108.708 348.832 106.772 347.088 104.276 347.088C101.796 347.088 99.8443 348.832 99.8443 351.6C99.8443 354.384 101.732 356.144 104.212 356.144C106.708 356.144 108.708 354.384 108.708 351.6ZM101.332 351.6C101.332 349.392 102.724 348.352 104.26 348.352C105.764 348.352 107.22 349.392 107.22 351.6C107.22 353.824 105.732 354.864 104.212 354.864C102.692 354.864 101.332 353.824 101.332 351.6Z" fill="black"/>
<path d="M91.368 395.834C91.368 398.774 92.096 401 94.896 401C97.682 401 98.41 398.774 98.41 395.834C98.41 392.936 97.682 390.724 94.896 390.724C92.096 390.724 91.368 392.936 91.368 395.834ZM97.15 395.834C97.15 398.018 96.884 399.838 94.896 399.838C92.894 399.838 92.628 398.018 92.628 395.834C92.628 393.734 92.894 391.886 94.896 391.886C96.884 391.886 97.15 393.734 97.15 395.834ZM101.615 400.216C101.615 399.726 101.237 399.348 100.775 399.348C100.285 399.348 99.907 399.726 99.907 400.216C99.907 400.706 100.285 401.084 100.775 401.084C101.237 401.084 101.615 400.706 101.615 400.216ZM103.098 395.834C103.098 398.774 103.826 401 106.626 401C109.412 401 110.14 398.774 110.14 395.834C110.14 392.936 109.412 390.724 106.626 390.724C103.826 390.724 103.098 392.936 103.098 395.834ZM108.88 395.834C108.88 398.018 108.614 399.838 106.626 399.838C104.624 399.838 104.358 398.018 104.358 395.834C104.358 393.734 104.624 391.886 106.626 391.886C108.614 391.886 108.88 393.734 108.88 395.834Z" fill="#6F6F6F"/>
<path d="M400.98 397.96C400.98 393.832 394.964 395.624 394.964 392.744C394.964 391.544 395.908 390.92 397.108 390.952C398.468 390.968 399.172 391.816 399.268 392.568H400.868C400.692 390.872 399.3 389.704 397.172 389.704C394.964 389.704 393.476 390.952 393.476 392.792C393.476 396.936 399.508 395.016 399.508 398.024C399.508 399.08 398.676 399.88 397.268 399.88C395.716 399.88 395.06 398.952 394.964 398.024H393.412C393.444 399.864 395.028 401.112 397.268 401.112C399.684 401.112 400.98 399.544 400.98 397.96ZM406.851 393.32C408.355 393.32 409.635 394.264 409.619 395.976H404.083C404.243 394.264 405.427 393.32 406.851 393.32ZM410.947 398.296H409.379C409.059 399.24 408.227 399.912 406.915 399.912C405.427 399.912 404.179 398.936 404.067 397.16H411.075C411.107 396.856 411.123 396.6 411.123 396.28C411.123 393.88 409.459 392.088 406.915 392.088C404.355 392.088 402.579 393.832 402.579 396.6C402.579 399.384 404.419 401.144 406.915 401.144C409.091 401.144 410.499 399.896 410.947 398.296ZM413.045 401H414.501V389.16H413.045V401ZM420.71 393.32C422.214 393.32 423.494 394.264 423.478 395.976H417.942C418.102 394.264 419.286 393.32 420.71 393.32ZM424.806 398.296H423.238C422.918 399.24 422.086 399.912 420.774 399.912C419.286 399.912 418.038 398.936 417.926 397.16H424.934C424.966 396.856 424.982 396.6 424.982 396.28C424.982 393.88 423.318 392.088 420.774 392.088C418.214 392.088 416.438 393.832 416.438 396.6C416.438 399.384 418.278 401.144 420.774 401.144C422.95 401.144 424.358 399.896 424.806 398.296ZM426.36 396.6C426.36 399.384 428.136 401.144 430.632 401.144C432.808 401.144 434.232 399.928 434.68 398.184H433.112C432.792 399.288 431.928 399.912 430.632 399.912C429.032 399.912 427.848 398.776 427.848 396.6C427.848 394.456 429.032 393.32 430.632 393.32C431.928 393.32 432.808 393.992 433.112 395.048H434.68C434.232 393.208 432.808 392.088 430.632 392.088C428.136 392.088 426.36 393.848 426.36 396.6ZM436.943 398.6C436.943 400.36 437.823 401 439.375 401H440.687V399.768H439.615C438.719 399.768 438.399 399.464 438.399 398.6V393.432H440.687V392.232H438.399V390.024H436.943V392.232H435.807V393.432H436.943V398.6ZM446.172 396.584C446.172 399.304 447.98 401.144 450.316 401.144C451.932 401.144 453.068 400.312 453.596 399.368V401H455.068V392.232H453.596V393.832C453.084 392.92 451.964 392.088 450.332 392.088C447.98 392.088 446.172 393.848 446.172 396.584ZM453.596 396.6C453.596 398.664 452.22 399.864 450.62 399.864C449.02 399.864 447.66 398.648 447.66 396.584C447.66 394.52 449.02 393.352 450.62 393.352C452.22 393.352 453.596 394.568 453.596 396.6ZM461.251 396.6C461.251 399.384 463.027 401.144 465.523 401.144C467.699 401.144 469.123 399.928 469.571 398.184H468.003C467.683 399.288 466.819 399.912 465.523 399.912C463.923 399.912 462.739 398.776 462.739 396.6C462.739 394.456 463.923 393.32 465.523 393.32C466.819 393.32 467.699 393.992 468.003 395.048H469.571C469.123 393.208 467.699 392.088 465.523 392.088C463.027 392.088 461.251 393.848 461.251 396.6ZM479.289 392.232H477.833V397.048C477.833 398.936 476.825 399.864 475.321 399.864C473.849 399.864 472.873 398.952 472.873 397.176V392.232H471.433V397.368C471.433 399.88 473.017 401.128 475.033 401.128C476.201 401.128 477.273 400.616 477.833 399.704V401H479.289V392.232ZM483.204 396.232C483.204 394.2 484.26 393.576 485.652 393.576H486.036V392.072C484.644 392.072 483.7 392.68 483.204 393.656V392.232H481.748V401H483.204V396.232ZM489.172 396.232C489.172 394.2 490.228 393.576 491.62 393.576H492.004V392.072C490.612 392.072 489.668 392.68 489.172 393.656V392.232H487.716V401H489.172V396.232ZM497.413 393.32C498.917 393.32 500.197 394.264 500.181 395.976H494.645C494.805 394.264 495.989 393.32 497.413 393.32ZM501.509 398.296H499.941C499.621 399.24 498.789 399.912 497.477 399.912C495.989 399.912 494.741 398.936 494.629 397.16H501.637C501.669 396.856 501.685 396.6 501.685 396.28C501.685 393.88 500.021 392.088 497.477 392.088C494.917 392.088 493.141 393.832 493.141 396.6C493.141 399.384 494.981 401.144 497.477 401.144C499.653 401.144 501.061 399.896 501.509 398.296ZM510.023 401H511.463V395.832C511.463 393.32 509.911 392.072 507.879 392.072C506.695 392.072 505.639 392.568 505.063 393.48V392.232H503.607V401H505.063V396.152C505.063 394.264 506.087 393.336 507.575 393.336C509.047 393.336 510.023 394.248 510.023 396.04V401ZM513.297 396.6C513.297 399.384 515.073 401.144 517.569 401.144C519.745 401.144 521.169 399.928 521.617 398.184H520.049C519.729 399.288 518.865 399.912 517.569 399.912C515.969 399.912 514.785 398.776 514.785 396.6C514.785 394.456 515.969 393.32 517.569 393.32C518.865 393.32 519.745 393.992 520.049 395.048H521.617C521.169 393.208 519.745 392.088 517.569 392.088C515.073 392.088 513.297 393.848 513.297 396.6ZM526.888 399.336L524.136 392.232H522.52L526.056 400.904L524.328 405.128H525.832L531.112 392.232H529.608L526.888 399.336Z" fill="black"/>
<path d="M536.5 394.5L541.5 399.5L546.5 394.5" stroke="black" stroke-width="2" stroke-linecap="round" stroke-linejoin="round"/>
<rect x="70.5" y="157" width="490" height="100" rx="10" fill="#FFF5D6"/>
<path d="M91.732 185H93.188V179.976H97.124V178.792H93.188V175.032H98.036V173.848H91.732V185ZM101.251 180.232C101.251 178.2 102.307 177.576 103.699 177.576H104.083V176.072C102.691 176.072 101.747 176.68 101.251 177.656V176.232H99.7945V185H101.251V180.232ZM114.083 180.6C114.083 177.832 112.147 176.088 109.651 176.088C107.171 176.088 105.219 177.832 105.219 180.6C105.219 183.384 107.107 185.144 109.587 185.144C112.083 185.144 114.083 183.384 114.083 180.6ZM106.707 180.6C106.707 178.392 108.099 177.352 109.635 177.352C111.139 177.352 112.595 178.392 112.595 180.6C112.595 182.824 111.107 183.864 109.587 183.864C108.067 183.864 106.707 182.824 106.707 180.6ZM128.654 185H130.094V179.832C130.094 177.32 128.542 176.072 126.542 176.072C125.198 176.072 123.95 176.76 123.438 178.024C122.862 176.712 121.662 176.072 120.222 176.072C119.07 176.072 118.03 176.568 117.454 177.496V176.232H115.998V185H117.454V180.168C117.454 178.28 118.462 177.336 119.934 177.336C121.374 177.336 122.334 178.248 122.334 180.04V185H123.774V180.168C123.774 178.28 124.782 177.336 126.254 177.336C127.694 177.336 128.654 178.248 128.654 180.04V185Z" fill="black"/>
<path d="M91.368 224.834C91.368 227.774 92.096 230 94.896 230C97.682 230 98.41 227.774 98.41 224.834C98.41 221.936 97.682 219.724 94.896 219.724C92.096 219.724 91.368 221.936 91.368 224.834ZM97.15 224.834C97.15 227.018 96.884 228.838 94.896 228.838C92.894 228.838 92.628 227.018 92.628 224.834C92.628 222.734 92.894 220.886 94.896 220.886C96.884 220.886 97.15 222.734 97.15 224.834ZM101.615 229.216C101.615 228.726 101.237 228.348 100.775 228.348C100.285 228.348 99.907 228.726 99.907 229.216C99.907 229.706 100.285 230.084 100.775 230.084C101.237 230.084 101.615 229.706 101.615 229.216ZM103.098 224.834C103.098 227.774 103.826 230 106.626 230C109.412 230 110.14 227.774 110.14 224.834C110.14 221.936 109.412 219.724 106.626 219.724C103.826 219.724 103.098 221.936 103.098 224.834ZM108.88 224.834C108.88 227.018 108.614 228.838 106.626 228.838C104.624 228.838 104.358 227.018 104.358 224.834C104.358 222.734 104.624 220.886 106.626 220.886C108.614 220.886 108.88 222.734 108.88 224.834Z" fill="#6F6F6F"/>
<path d="M507.068 236.864C507.068 238.08 506.204 238.8 504.764 238.8H502.188V234.864H504.716C506.14 234.864 507.068 235.632 507.068 236.864ZM506.78 231.856C506.78 232.992 505.996 233.664 504.636 233.664H502.188V230.048H504.604C506.028 230.048 506.78 230.752 506.78 231.856ZM508.524 237.008C508.524 235.632 507.532 234.464 506.316 234.256C507.388 233.904 508.268 233.088 508.268 231.68C508.268 230.128 507.084 228.848 504.732 228.848H500.732V240H504.892C507.196 240 508.524 238.688 508.524 237.008ZM517.857 228.832V237.696L512.001 228.832H510.545V240H512.001V231.12L517.857 240H519.312V228.832H517.857ZM528.131 236.864C528.131 238.08 527.267 238.8 525.827 238.8H523.251V234.864H525.779C527.203 234.864 528.131 235.632 528.131 236.864ZM527.843 231.856C527.843 232.992 527.059 233.664 525.699 233.664H523.251V230.048H525.667C527.091 230.048 527.843 230.752 527.843 231.856ZM529.587 237.008C529.587 235.632 528.595 234.464 527.379 234.256C528.451 233.904 529.331 233.088 529.331 231.68C529.331 230.128 528.147 228.848 525.795 228.848H521.795V240H525.955C528.259 240 529.587 238.688 529.587 237.008Z" fill="black"/>
<path d="M536.5 231.5L541.5 236.5L546.5 231.5" stroke="black" stroke-width="2" stroke-linecap="round" stroke-linejoin="round"/>
<g clip-path="url(#clip0_53:717)">
<path d="M487.5 242C491.918 242 495.5 238.418 495.5 234C495.5 229.582 491.918 226 487.5 226C483.082 226 479.5 229.582 479.5 234C479.5 238.418 483.082 242 487.5 242Z" fill="#F0B90B"/>
<path d="M484.517 234L483.293 235.233L482.06 234L483.293 232.768L484.517 234ZM487.5 231.017L489.608 233.125L490.841 231.892L488.733 229.793L487.5 228.56L486.268 229.793L484.168 231.892L485.401 233.125L487.5 231.017ZM491.708 232.768L490.484 234L491.716 235.233L492.94 234L491.708 232.768ZM487.5 236.984L485.392 234.876L484.168 236.108L486.276 238.216L487.5 239.44L488.733 238.208L490.841 236.1L489.608 234.876L487.5 236.984ZM487.5 235.233L488.733 234L487.5 232.768L486.268 234L487.5 235.233Z" fill="#FFFDFA"/>
</g>
<rect x="70.5" y="451" width="487" height="45" rx="3" fill="#FEC200"/>
<path d="M251.06 474.4C251.06 477.744 253.508 480.096 256.724 480.096C259.204 480.096 261.22 478.784 261.972 476.48H259.396C258.868 477.568 257.908 478.096 256.708 478.096C254.756 478.096 253.364 476.656 253.364 474.4C253.364 472.128 254.756 470.704 256.708 470.704C257.908 470.704 258.868 471.232 259.396 472.304H261.972C261.22 470.016 259.204 468.688 256.724 468.688C253.508 468.688 251.06 471.056 251.06 474.4ZM272.445 475.568C272.445 472.768 270.445 470.992 267.885 470.992C265.325 470.992 263.325 472.768 263.325 475.568C263.325 478.352 265.261 480.144 267.821 480.144C270.397 480.144 272.445 478.352 272.445 475.568ZM265.597 475.568C265.597 473.792 266.669 472.944 267.853 472.944C269.037 472.944 270.141 473.792 270.141 475.568C270.141 477.328 269.005 478.192 267.821 478.192C266.621 478.192 265.597 477.328 265.597 475.568ZM280.296 480H282.536V474.8C282.536 472.352 281.064 471.008 279 471.008C277.864 471.008 276.904 471.488 276.328 472.24V471.136H274.088V480H276.328V475.104C276.328 473.68 277.112 472.912 278.328 472.912C279.512 472.912 280.296 473.68 280.296 475.104V480ZM290.875 480H293.115V474.8C293.115 472.352 291.642 471.008 289.579 471.008C288.443 471.008 287.483 471.488 286.907 472.24V471.136H284.667V480H286.907V475.104C286.907 473.68 287.691 472.912 288.907 472.912C290.091 472.912 290.875 473.68 290.875 475.104V480ZM299.053 472.832C300.205 472.832 301.133 473.568 301.165 474.736H296.957C297.133 473.52 297.981 472.832 299.053 472.832ZM303.261 477.216H300.845C300.557 477.808 300.029 478.288 299.069 478.288C297.949 478.288 297.053 477.552 296.941 476.24H303.421C303.469 475.952 303.485 475.664 303.485 475.376C303.485 472.736 301.677 470.992 299.117 470.992C296.493 470.992 294.669 472.768 294.669 475.568C294.669 478.352 296.541 480.144 299.117 480.144C301.309 480.144 302.781 478.848 303.261 477.216ZM304.544 475.568C304.544 478.352 306.368 480.144 308.928 480.144C311.136 480.144 312.624 478.896 313.104 477.008H310.688C310.416 477.808 309.84 478.224 308.912 478.224C307.664 478.224 306.832 477.296 306.832 475.568C306.832 473.84 307.664 472.896 308.912 472.896C309.84 472.896 310.432 473.376 310.688 474.128H313.104C312.624 472.144 311.136 470.992 308.928 470.992C306.368 470.992 304.544 472.784 304.544 475.568ZM315.097 477.248C315.097 479.28 316.233 480 317.929 480H319.337V478.112H318.297C317.593 478.112 317.353 477.856 317.353 477.264V472.976H319.337V471.136H317.353V468.944H315.097V471.136H314.041V472.976H315.097V477.248ZM327.016 480.016L329.64 480L331.832 472.048L333.928 480H336.568L339.688 468.832H337.272L335.288 477.456L333.144 468.832H330.648L328.376 477.504L326.408 468.832H324.008L327.016 480.016ZM340.575 475.536C340.575 478.304 342.367 480.144 344.607 480.144C346.015 480.144 347.023 479.472 347.551 478.704V480H349.807V471.136H347.551V472.4C347.023 471.664 346.047 470.992 344.623 470.992C342.367 470.992 340.575 472.768 340.575 475.536ZM347.551 475.568C347.551 477.248 346.431 478.176 345.199 478.176C343.999 478.176 342.863 477.216 342.863 475.536C342.863 473.856 343.999 472.96 345.199 472.96C346.431 472.96 347.551 473.888 347.551 475.568ZM351.995 480H354.235V468.16H351.995V480ZM356.448 480H358.688V468.16H356.448V480ZM364.709 472.832C365.861 472.832 366.789 473.568 366.821 474.736H362.613C362.789 473.52 363.637 472.832 364.709 472.832ZM368.917 477.216H366.501C366.213 477.808 365.685 478.288 364.725 478.288C363.605 478.288 362.709 477.552 362.597 476.24H369.077C369.125 475.952 369.141 475.664 369.141 475.376C369.141 472.736 367.333 470.992 364.773 470.992C362.149 470.992 360.325 472.768 360.325 475.568C360.325 478.352 362.197 480.144 364.773 480.144C366.965 480.144 368.437 478.848 368.917 477.216ZM371.128 477.248C371.128 479.28 372.264 480 373.96 480H375.368V478.112H374.328C373.624 478.112 373.384 477.856 373.384 477.264V472.976H375.368V471.136H373.384V468.944H371.128V471.136H370.072V472.976H371.128V477.248Z" fill="black"/>
<defs>
<filter id="filter0_d_53:717" x="0.5" y="0" width="630" height="579" filterUnits="userSpaceOnUse" color-interpolation-filters="sRGB">
<feFlood flood-opacity="0" result="BackgroundImageFix"/>
<feColorMatrix in="SourceAlpha" type="matrix" values="0 0 0 0 0 0 0 0 0 0 0 0 0 0 0 0 0 0 127 0" result="hardAlpha"/>
<feOffset dy="10"/>
<feGaussianBlur stdDeviation="20"/>
<feComposite in2="hardAlpha" operator="out"/>
<feColorMatrix type="matrix" values="0 0 0 0 0.996078 0 0 0 0 0.760784 0 0 0 0 0 0 0 0 0.15 0"/>
<feBlend mode="normal" in2="BackgroundImageFix" result="effect1_dropShadow_53:717"/>
<feBlend mode="normal" in="SourceGraphic" in2="effect1_dropShadow_53:717" result="shape"/>
</filter>
<clipPath id="clip0_53:717">
<rect width="16" height="16" fill="white" transform="translate(479.5 226)"/>
</clipPath>
</defs>
</svg>
